# xmcd
# 
# Track frame offsets:
#     183
#     19070
#     48650
#     82995
#     97643
#     125228
#     140308
#     154178
#     183580
#     219310
#     233750
#     257910
# 
# Disc length: 3759
# 
# Revision: 7
# Processed by: cddbd v1.5.2PL0 Copyright (c) Steve Scherf et al.
# Submitted via: fre:ac v1.1beta1pre5
# 
DISCID=9d0ead0c
DTITLE=Abbado, Coro e Orchestra del Teatro alla Scala - Verdi - Aida
DYEAR=1982
DGENRE=Opera
TTITLE0=O tu che sei d'Osiride...Vieni d'Iside al tempio
TTITLE1=Qui Radam s verr !...O patria mia
TTITLE2=Ciel! mio padre!...Rivedrai le foreste imbalsamate
TTITLE3=Pur ti riveggo, mia dolce A da...Nel fiero anelito
TTITLE4=Fuggiam gli ardori Inospiti...L , tra foreste vergini
TTITLE5=Ma dimmi - per qual via
TTITLE6=L'aborrita rivale a me sfuggia
TTITLE7=Gi  i Sacerdoti adunansi
TTITLE8=Ohim ! morir mi sento!...Spirito del nume
TTITLE9=A lui vibo la tomba...Sacerdoti: compiste un delitto!
TTITLE10=La fatal pietra sovra me si chiuse
TTITLE11=Immenso Fth ...O terra, addio
EXTD=
EXTT0=
EXTT1=
EXTT2=
EXTT3=
EXTT4=
EXTT5=
EXTT6=
EXTT7=
EXTT8=
EXTT9=
EXTT10=
EXTT11=
PLAYORDER=
